<svg viewBox="0 0 120 120" fill="none" xmlns="http://www.w3.org/2000/svg">
  <!-- Sombra -->
  <ellipse cx="60" cy="112" rx="28" ry="4" fill="rgba(0,0,0,0.06)"/>
  <!-- Cuerpo/Camiseta -->
  <path d="M40 68 L34 92 Q34 96 38 96 L82 96 Q86 96 86 92 L80 68" fill="#3B82F6"/>
  <path d="M46 66 L40 72 Q40 74 44 74 L76 74 Q80 74 80 72 L74 66Z" fill="#2563EB"/>
  <!-- Cuello -->
  <rect x="52" y="52" width="16" height="14" rx="3" fill="#FDE68A"/>
  <!-- Cabeza -->
  <circle cx="60" cy="36" r="26" fill="#FDE68A"/>
  <!-- Pelo -->
  <path d="M34 36 C34 14 48 10 60 10 C72 10 86 14 86 36 C86 30 80 20 72 16 L48 16 C40 20 34 30 34 36Z" fill="#78350F"/>
  <!-- Mechas izquierda -->
  <path d="M34 36 C32 40 33 46 36 50" stroke="#78350F" stroke-width="3" fill="none" stroke-linecap="round"/>
  <!-- Mechas derecha -->
  <path d="M86 36 C88 40 87 46 84 50" stroke="#78350F" stroke-width="3" fill="none" stroke-linecap="round"/>
  <!-- Cejas -->
  <path d="M42 30 Q48 27 54 30" stroke="#92400E" stroke-width="2" fill="none" stroke-linecap="round"/>
  <path d="M66 30 Q72 27 78 30" stroke="#92400E" stroke-width="2" fill="none" stroke-linecap="round"/>
  <!-- Ojos -->
  <ellipse cx="48" cy="37" rx="4.5" ry="5.5" fill="white"/>
  <ellipse cx="72" cy="37" rx="4.5" ry="5.5" fill="white"/>
  <circle cx="49" cy="37" r="3" fill="#1F2937"/>
  <circle cx="73" cy="37" r="3" fill="#1F2937"/>
  <circle cx="50" cy="35.5" r="1.2" fill="white"/>
  <circle cx="74" cy="35.5" r="1.2" fill="white"/>
  <!-- Sonrisa -->
  <path d="M50 47 Q60 54 70 47" stroke="#92400E" stroke-width="2.5" fill="none" stroke-linecap="round"/>
  <!-- Rubor -->
  <ellipse cx="42" cy="44" rx="5" ry="3" fill="#FCA5A5" opacity="0.35"/>
  <ellipse cx="78" cy="44" rx="5" ry="3" fill="#FCA5A5" opacity="0.35"/>
  <!-- Diseño brújula -->
  <circle cx="60" cy="82" r="6" fill="white" opacity="0.3"/>
  <path d="M57.5 79.5 L60 78 L62.5 79.5 L60 86Z" fill="white" opacity="0.5"/>
</svg>
