<svg viewBox="0 0 120 120" fill="none" xmlns="http://www.w3.org/2000/svg">
  <!-- Sombra -->
  <ellipse cx="60" cy="112" rx="28" ry="4" fill="rgba(0,0,0,0.06)"/>
  <!-- Cuerpo/Camiseta -->
  <path d="M40 68 L34 92 Q34 96 38 96 L82 96 Q86 96 86 92 L80 68" fill="#EC4899"/>
  <path d="M46 66 L40 72 Q40 74 44 74 L76 74 Q80 74 80 72 L74 66Z" fill="#DB2777"/>
  <!-- Cuello -->
  <rect x="52" y="52" width="16" height="14" rx="3" fill="#FDE68A"/>
  <!-- Cabeza -->
  <circle cx="60" cy="36" r="26" fill="#FDE68A"/>
  <!-- Pelo largo con flequillo -->
  <path d="M34 36 C34 14 48 10 60 10 C72 10 86 14 86 36 L86 50 Q86 62 80 66 L78 62 Q84 56 84 48 L84 36 C84 16 72 12 60 12 C48 12 36 16 36 36 L36 48 Q36 56 42 62 L40 66 Q34 62 34 50Z" fill="#78350F"/>
  <!-- Pelo lado izquierdo -->
  <path d="M34 50 Q30 68 32 82" stroke="#78350F" stroke-width="5.5" fill="none" stroke-linecap="round"/>
  <!-- Pelo lado derecho -->
  <path d="M86 50 Q90 68 88 82" stroke="#78350F" stroke-width="5.5" fill="none" stroke-linecap="round"/>
  <!-- Coleteros -->
  <path d="M36 50 C32 46 28 50 32 54" fill="#F472B6"/>
  <path d="M84 50 C88 46 92 50 88 54" fill="#F472B6"/>
  <!-- Cejas -->
  <path d="M42 30 Q48 27 54 30" stroke="#92400E" stroke-width="2" fill="none" stroke-linecap="round"/>
  <path d="M66 30 Q72 27 78 30" stroke="#92400E" stroke-width="2" fill="none" stroke-linecap="round"/>
  <!-- Ojos -->
  <ellipse cx="48" cy="37" rx="4.5" ry="5.5" fill="white"/>
  <ellipse cx="72" cy="37" rx="4.5" ry="5.5" fill="white"/>
  <circle cx="49" cy="37" r="3" fill="#1F2937"/>
  <circle cx="73" cy="37" r="3" fill="#1F2937"/>
  <circle cx="50" cy="35.5" r="1.5" fill="white"/>
  <circle cx="74" cy="35.5" r="1.5" fill="white"/>
  <!-- Pestañas -->
  <path d="M42 32 L44 33.5" stroke="#78350F" stroke-width="1.5" stroke-linecap="round"/>
  <path d="M78 32 L76 33.5" stroke="#78350F" stroke-width="1.5" stroke-linecap="round"/>
  <!-- Sonrisa -->
  <path d="M50 47 Q60 54 70 47" stroke="#92400E" stroke-width="2.5" fill="none" stroke-linecap="round"/>
  <!-- Rubor -->
  <ellipse cx="42" cy="44" rx="5" ry="3" fill="#FCA5A5" opacity="0.35"/>
  <ellipse cx="78" cy="44" rx="5" ry="3" fill="#FCA5A5" opacity="0.35"/>
  <!-- Diseño estrella -->
  <circle cx="60" cy="82" r="6" fill="white" opacity="0.3"/>
  <path d="M60 78.5 L61.5 81 L64.5 81.5 L62 83.5 L63 86.5 L60 84.5 L57 86.5 L58 83.5 L55.5 81.5 L58.5 81Z" fill="white" opacity="0.5"/>
</svg>
